Coordinates
version=1
nRows=24
nColumns=38
inDegrees=no

Units are S.I. units (second, meters, Newtons, ...)
If the header above contains a line with 'inDegrees', this indicates whether rotational values are in degrees (yes) or radians (no).

endheader
time	pelvis_tilt	pelvis_list	pelvis_rotation	pelvis_tx	pelvis_ty	pelvis_tz	hip_flexion_r	hip_adduction_r	hip_rotation_r	knee_angle_r	ankle_angle_r	subtalar_angle_r	mtp_angle_r	hip_flexion_l	hip_adduction_l	hip_rotation_l	knee_angle_l	ankle_angle_l	subtalar_angle_l	mtp_angle_l	lumbar_extension	lumbar_bending	lumbar_rotation	arm_flex_r	arm_add_r	arm_rot_r	elbow_flex_r	pro_sup_r	wrist_flex_r	wrist_dev_r	arm_flex_l	arm_add_l	arm_rot_l	elbow_flex_l	pro_sup_l	wrist_flex_l	wrist_dev_l
1.07	2.92976	1.45919	1.76132	0.723836	-0.16205	1.02074	0.654634	-0.0058797	0.0161767	1.30152	-0.105471	0	0	0.231209	-0.0405746	-0.299049	0.630768	0.216848	0	0	0.0734099	0.00413713	-0.0884808	-0.208409	-0.342642	0.495525	0.659468	1.13354	0	0	-0.036988	-0.393807	0.517896	0.536184	1.32581	0	0
1.08	2.98075	1.45979	1.71719	0.724313	-0.172309	1.02102	0.671254	-0.000642052	0.0104513	1.27741	-0.0900169	0	0	0.217502	-0.0456764	-0.297732	0.624939	0.21929	0	0	0.0726628	0.0118791	-0.0955377	-0.218881	-0.334586	0.492681	0.646195	1.13873	0	0	-0.0270353	-0.402849	0.516163	0.552794	1.32588	0	0
1.09	3.02475	1.45902	1.67988	0.72476	-0.182482	1.02104	0.68777	0.0033125	0.00623827	1.2515	-0.0786772	0	0	0.205249	-0.0504493	-0.298129	0.62	0.220775	0	0	0.0734029	0.0190841	-0.101773	-0.230349	-0.32718	0.489089	0.634714	1.14449	0	0	-0.0161488	-0.410497	0.514701	0.566312	1.32469	0	0
1.1	3.06661	1.45506	1.64517	0.725144	-0.192722	1.02079	0.70424	0.00631356	0.00280575	1.22187	-0.0304086	0	0	0.195681	-0.0540861	-0.294548	0.613274	0.225861	0	0	0.0761686	0.0232406	-0.123782	-0.214732	-0.329874	0.564155	0.608242	1.09128	0	0	-0.0303438	-0.417031	0.455243	0.596744	1.35989	0	0
1.11	3.0994	1.4515	1.61835	0.725476	-0.202903	1.02039	0.718466	0.00853654	0.00172176	1.18913	-0.00799078	0	0	0.185657	-0.057826	-0.293968	0.607519	0.228095	0	0	0.0794046	0.0285691	-0.130293	-0.22244	-0.320686	0.566851	0.590115	1.09699	0	0	-0.0226183	-0.425485	0.451162	0.612692	1.36065	0	0
1.12	3.12543	1.44692	1.59778	0.725768	-0.21311	1.01976	0.731382	0.00978058	0.00186621	1.15285	0.0129014	0	0	0.176717	-0.0609995	-0.293394	0.601931	0.230286	0	0	0.0838831	0.0334931	-0.135869	-0.230627	-0.311624	0.568664	0.572375	1.10284	0	0	-0.0145354	-0.433453	0.448538	0.627321	1.36102	0	0
1.13	-3.13749	1.44145	1.58244	0.726079	-0.223335	1.01889	0.74316	0.00986747	0.00253366	1.1134	0.0308448	0	0	0.169045	-0.0635648	-0.292703	0.596765	0.232149	0	0	0.0893835	0.0382939	-0.140345	-0.239849	-0.303372	0.56887	0.55659	1.1084	0	0	-0.00589379	-0.44069	0.447575	0.640462	1.36094	0	0
1.14	-3.1244	1.43584	1.57375	0.726376	-0.233578	1.0178	0.753983	0.00843517	0.00266696	1.07372	0.0434331	0	0	0.161925	-0.0655553	-0.292405	0.59247	0.233234	0	0	0.0950628	0.0429563	-0.143802	-0.250786	-0.296733	0.566764	0.545137	1.1134	0	0	0.00345911	-0.446995	0.447963	0.651444	1.3597	0	0
1.15	-3.11631	1.42574	1.57038	0.726636	-0.243986	1.01629	0.76639	0.00592573	0.00246685	1.02897	0.0775747	0	0	0.159576	-0.0659726	-0.287339	0.587377	0.237103	0	0	0.105794	0.0450063	-0.159287	-0.241552	-0.297932	0.635403	0.521936	1.06476	0	0	-0.00835741	-0.449282	0.399685	0.672535	1.39411	0	0
1.16	-3.11115	1.41715	1.56924	0.726898	-0.254459	1.01469	0.775957	0.00265223	0.000600064	0.981946	0.0967434	0	0	0.155624	-0.0667232	-0.285777	0.583425	0.239402	0	0	0.115436	0.0481138	-0.162714	-0.251164	-0.290222	0.636356	0.50657	1.07149	0	0	-0.00254808	-0.454972	0.396774	0.684303	1.39607	0	0
1.17	-3.10804	1.40791	1.57037	0.727223	-0.265067	1.01289	0.784485	-0.00136121	-0.00346341	0.932153	0.117043	0	0	0.152209	-0.0670879	-0.284546	0.579871	0.242432	0	0	0.126015	0.0509788	-0.166178	-0.260863	-0.282142	0.635308	0.490584	1.08046	0	0	0.00276344	-0.460223	0.394645	0.695411	1.39773	0	0
1.18	-3.10741	1.39881	1.57445	0.727597	-0.275784	1.01097	0.792036	-0.00612815	-0.0102558	0.881515	0.135073	0	0	0.148549	-0.0671071	-0.283972	0.576667	0.245298	0	0	0.136546	0.0535161	-0.169487	-0.271467	-0.274724	0.63179	0.476755	1.08981	0	0	0.00863973	-0.46514	0.394445	0.70526	1.39881	0	0
1.19	-3.10914	1.3896	1.58131	0.727986	-0.286605	1.00892	0.79902	-0.0113701	-0.0189503	0.830248	0.151096	0	0	0.144956	-0.0667827	-0.284209	0.573722	0.24772	0	0	0.147468	0.0555535	-0.172676	-0.282911	-0.267144	0.62401	0.46388	1.10187	0	0	0.0150789	-0.469837	0.396773	0.713626	1.39895	0	0
1.2	-3.1114	1.37975	1.58944	0.728399	-0.29754	1.00679	0.805248	-0.0167578	-0.0278698	0.777396	0.166073	0	0	0.142235	-0.0661773	-0.283732	0.571145	0.25061	0	0	0.159459	0.0563672	-0.186513	-0.274854	-0.275151	0.715876	0.451022	1.01887	0	0	0.00563015	-0.470598	0.364402	0.727472	1.42025	0	0
1.21	-3.11077	1.37166	1.59517	0.728792	-0.308576	1.00472	0.808234	-0.0214744	-0.0359952	0.724662	0.177441	0	0	0.137715	-0.0661505	-0.282469	0.568809	0.253057	0	0	0.169098	0.0585542	-0.192004	-0.283907	-0.268141	0.712813	0.437174	1.03	0	0	0.00890506	-0.473504	0.361513	0.735121	1.42071	0	0
1.22	-3.1072	1.36448	1.59797	0.729066	-0.319799	1.00268	0.808314	-0.0246616	-0.0405231	0.672681	0.187222	0	0	0.132387	-0.0671134	-0.281808	0.566941	0.255044	0	0	0.178046	0.0612976	-0.197651	-0.292322	-0.260775	0.707875	0.422599	1.04475	0	0	0.0118809	-0.476107	0.359714	0.741488	1.42158	0	0
1.23	-3.10028	1.3582	1.59773	0.729271	-0.331213	1.00068	0.805914	-0.0268038	-0.0407379	0.623621	0.195147	0	0	0.126328	-0.0694689	-0.281951	0.565737	0.256323	0	0	0.186422	0.0647137	-0.203799	-0.300286	-0.253506	0.701027	0.408164	1.06199	0	0	0.0146317	-0.478358	0.359242	0.746405	1.42211	0	0
1.24	-3.09015	1.35329	1.59515	0.729516	-0.342776	0.998749	0.802089	-0.0290358	-0.0388176	0.582006	0.202896	0	0	0.119252	-0.0728902	-0.281408	0.565253	0.257148	0	0	0.193607	0.0689205	-0.210576	-0.308376	-0.246927	0.690864	0.395424	1.08082	0	0	0.0176018	-0.479699	0.359534	0.749904	1.42029	0	0
1.25	-3.07324	1.35143	1.58757	0.729881	-0.354395	0.997202	0.792666	-0.0303664	-0.0338858	0.540586	0.205265	0	0	0.10969	-0.0779287	-0.277776	0.565196	0.257566	0	0	0.196369	0.073807	-0.228709	-0.298343	-0.249264	0.762578	0.377248	1.0329	0	0	0.00618599	-0.476826	0.326151	0.759542	1.43797	0	0
1.26	-3.05941	1.34959	1.58313	0.73027	-0.366114	0.995487	0.790253	-0.0330862	-0.0332478	0.522958	0.211905	0	0	0.100972	-0.0829958	-0.275145	0.567179	0.257024	0	0	0.200051	0.0788636	-0.238665	-0.302436	-0.244306	0.761366	0.363923	1.04596	0	0	0.00681442	-0.476206	0.321825	0.762108	1.43727	0	0
1.27	-3.04629	1.34798	1.57925	0.730603	-0.37798	0.993816	0.790002	-0.0353413	-0.0329519	0.516391	0.218359	0	0	0.0929851	-0.0885177	-0.273006	0.570765	0.255292	0	0	0.203944	0.0839253	-0.248739	-0.305891	-0.239826	0.759365	0.350841	1.06009	0	0	0.0069745	-0.475212	0.319082	0.763035	1.43616	0	0
1.28	-3.03247	1.34691	1.57417	0.730818	-0.389987	0.992253	0.78984	-0.0362629	-0.0305288	0.516021	0.220399	0	0	0.0853256	-0.0948075	-0.271085	0.575653	0.253135	0	0	0.208771	0.0893644	-0.257469	-0.306541	-0.244236	0.801731	0.347009	1.01671	0	0	0.00952277	-0.474465	0.325248	0.759546	1.42948	0	0
1.29	-3.01987	1.34549	1.57031	0.730871	-0.402183	0.990708	0.792646	-0.0372626	-0.029057	0.527578	0.221396	0	0	0.0787271	-0.101108	-0.266887	0.58102	0.248869	0	0	0.212157	0.0942718	-0.267349	-0.312757	-0.232633	0.74892	0.328229	1.09072	0	0	0.0065721	-0.471745	0.318084	0.75996	1.43136	0	0
1.3	-3.00735	1.34385	1.56647	0.730758	-0.414661	0.989168	0.796921	-0.0379034	-0.0281339	0.548591	0.219185	0	0	0.0728385	-0.10771	-0.260917	0.586762	0.243102	0	0	0.218399	0.097738	-0.284002	-0.297208	-0.248225	0.901586	0.325381	0.948569	0	0	-0.00611535	-0.468113	0.297746	0.76257	1.4377	0	0
